<?xml version="1.0" standalone="no"?>
<!DOCTYPE svg PUBLIC "-//W3C//DTD SVG 20010904//EN"
 "http://www.w3.org/TR/2001/REC-SVG-20010904/DTD/svg10.dtd">
<svg version="1.0" xmlns="http://www.w3.org/2000/svg"
 width="260.000000pt" height="260.000000pt" viewBox="0 0 260.000000 260.000000"
 preserveAspectRatio="xMidYMid meet">
<metadata>
Created by potrace 1.14, written by Peter Selinger 2001-2017
</metadata>
<g transform="translate(0.000000,260.000000) scale(0.100000,-0.100000)"
fill="#000000" stroke="none">
<path d="M1168 2514 c-2 -1 -21 -5 -43 -8 -23 -4 -52 -9 -65 -12 -14 -3 -38
-8 -54 -10 -102 -19 -361 -140 -421 -197 -7 -7 -23 -19 -36 -27 -12 -8 -61
-53 -108 -100 -87 -87 -162 -187 -219 -292 -37 -68 -100 -233 -106 -279 -3
-19 -10 -52 -15 -74 -6 -22 -11 -75 -13 -118 -2 -42 -7 -77 -11 -77 -5 0 -5
-5 -2 -10 4 -6 8 -41 11 -78 6 -109 17 -186 33 -235 7 -19 13 -43 16 -53 7
-34 40 -119 48 -122 4 -2 7 -9 7 -16 0 -18 57 -123 108 -200 50 -75 220 -256
240 -256 7 0 12 -4 12 -9 0 -5 9 -13 21 -16 13 -4 18 -12 15 -21 -3 -9 -1 -12
5 -9 10 7 44 -12 72 -40 9 -8 20 -16 24 -16 4 -1 40 -16 78 -34 39 -19 73 -33
76 -32 3 1 13 -4 22 -12 10 -7 17 -10 17 -6 0 4 11 0 25 -9 14 -9 30 -14 35
-11 6 3 10 2 10 -3 0 -5 6 -9 13 -10 21 -1 71 -12 87 -19 8 -3 26 -7 40 -7 16
-1 24 -7 22 -16 -3 -12 -1 -13 9 -2 16 15 69 16 69 1 0 -8 4 -8 14 0 10 9 16
9 21 1 5 -8 11 -8 19 -1 7 6 16 7 20 3 11 -11 80 -9 88 3 5 6 8 5 8 -4 0 -11
3 -11 15 -1 12 10 15 10 15 -1 0 -9 3 -10 8 -4 4 6 16 11 27 10 11 0 23 5 27
10 4 6 8 1 8 -10 0 -16 2 -17 9 -6 5 8 24 15 43 16 18 0 39 4 46 8 6 5 17 5
22 2 6 -3 10 -2 10 2 0 5 19 13 43 19 23 6 51 15 61 19 15 7 18 5 12 -6 -4 -8
0 -5 8 5 9 11 16 16 16 12 0 -5 7 -3 15 4 13 11 15 10 10 -6 -4 -13 -2 -12 6
3 7 13 16 23 22 23 14 0 135 59 142 70 3 5 14 7 25 5 14 -3 17 1 13 12 -5 13
-2 15 11 10 10 -4 15 -3 11 3 -3 6 1 10 9 10 9 0 16 4 16 8 0 15 99 84 111 76
8 -4 9 -3 5 5 -8 13 71 98 86 93 5 -1 7 2 4 7 -4 5 2 14 11 20 10 6 14 11 9
11 -6 0 -1 8 10 19 10 10 27 30 38 45 10 14 23 23 29 19 6 -4 7 -1 3 6 -5 7
-1 20 7 29 9 9 16 21 16 27 0 5 5 11 12 14 7 2 9 -1 4 -9 -5 -8 -4 -11 3 -6 6
3 9 15 7 26 -2 11 1 20 6 20 6 0 8 4 4 9 -7 13 30 73 39 64 4 -4 4 0 0 10 -4
11 -1 17 7 17 7 0 10 3 6 6 -3 3 3 28 13 54 10 26 16 51 12 56 -4 4 -1 4 7 -1
9 -5 12 -3 9 6 -3 8 -1 23 5 34 6 11 12 36 14 55 2 19 8 39 12 45 5 5 7 19 5
29 -1 11 5 26 14 34 9 7 11 11 5 7 -9 -4 -13 2 -13 20 0 14 4 24 9 21 10 -7 9
20 -1 30 -4 3 -5 11 -2 17 9 26 10 137 1 137 -5 0 -4 7 3 15 9 11 9 15 1 15
-9 0 -9 5 0 21 6 12 7 19 2 16 -6 -4 -11 6 -11 21 -2 32 -9 77 -17 112 -4 14
-7 32 -7 40 0 8 -5 21 -11 28 -5 6 -7 12 -3 12 5 0 -4 28 -34 105 -35 92 -65
149 -131 247 -21 33 -39 64 -39 69 0 6 -5 7 -10 4 -5 -3 -10 -1 -10 5 0 10
-145 160 -186 191 -152 117 -378 222 -525 244 -24 4 -48 9 -52 12 -9 6 -314
12 -319 7z"/>
<path d="M2447 799 c7 -7 15 -10 18 -7 3 3 -2 9 -12 12 -14 6 -15 5 -6 -5z"/>
<path d="M2078 343 c7 -3 16 -2 19 1 4 3 -2 6 -13 5 -11 0 -14 -3 -6 -6z"/>
<path d="M2055 319 c-4 -6 -5 -12 -2 -15 2 -3 7 2 10 11 7 17 1 20 -8 4z"/>
</g>
</svg>
